<mxfile host="app.diagrams.net" modified="2023-02-21T19:16:24.679Z" agent="5.0 (Macintosh; Intel Mac OS X 10_15_7) AppleWebKit/605.1.15 (KHTML, like Gecko) Version/16.2 Safari/605.1.15" etag="Lunj8tfFfDlSiwCfEQp0" version="20.8.20" type="github">
  <diagram name="Page-1" id="4x7LJ_1XCq6GG3LzoXGA">
    <mxGraphModel dx="1133" dy="743" grid="1" gridSize="10" guides="1" tooltips="1" connect="1" arrows="1" fold="1" page="1" pageScale="1" pageWidth="827" pageHeight="1169" math="0" shadow="0">
      <root>
        <mxCell id="0" />
        <mxCell id="1" parent="0" />
        <mxCell id="7PipBQlGZBK1kUq8rUA4-5" value="" style="edgeStyle=orthogonalEdgeStyle;rounded=0;orthogonalLoop=1;jettySize=auto;html=1;" edge="1" parent="1" source="7PipBQlGZBK1kUq8rUA4-1" target="7PipBQlGZBK1kUq8rUA4-4">
          <mxGeometry relative="1" as="geometry" />
        </mxCell>
        <mxCell id="7PipBQlGZBK1kUq8rUA4-1" value="User Intents to Sign Up for a dApp Store Implementation (dSI)" style="shape=process;whiteSpace=wrap;html=1;backgroundOutline=1;" vertex="1" parent="1">
          <mxGeometry x="120" y="120" width="240" height="90" as="geometry" />
        </mxCell>
        <mxCell id="7PipBQlGZBK1kUq8rUA4-8" value="" style="edgeStyle=orthogonalEdgeStyle;rounded=0;orthogonalLoop=1;jettySize=auto;html=1;" edge="1" parent="1" source="7PipBQlGZBK1kUq8rUA4-2" target="7PipBQlGZBK1kUq8rUA4-7">
          <mxGeometry relative="1" as="geometry" />
        </mxCell>
        <mxCell id="7PipBQlGZBK1kUq8rUA4-11" value="" style="edgeStyle=orthogonalEdgeStyle;rounded=0;orthogonalLoop=1;jettySize=auto;html=1;" edge="1" parent="1" source="7PipBQlGZBK1kUq8rUA4-2" target="7PipBQlGZBK1kUq8rUA4-10">
          <mxGeometry relative="1" as="geometry" />
        </mxCell>
        <mxCell id="7PipBQlGZBK1kUq8rUA4-2" value="dSI has inbuilt wallet?" style="rhombus;whiteSpace=wrap;html=1;" vertex="1" parent="1">
          <mxGeometry x="100" y="460" width="280" height="135" as="geometry" />
        </mxCell>
        <mxCell id="7PipBQlGZBK1kUq8rUA4-6" style="edgeStyle=orthogonalEdgeStyle;rounded=0;orthogonalLoop=1;jettySize=auto;html=1;" edge="1" parent="1" source="7PipBQlGZBK1kUq8rUA4-4" target="7PipBQlGZBK1kUq8rUA4-2">
          <mxGeometry relative="1" as="geometry" />
        </mxCell>
        <mxCell id="7PipBQlGZBK1kUq8rUA4-4" value="dSI signs up using email, phone, their own login, social login, web3 auth or anything else" style="shape=process;whiteSpace=wrap;html=1;backgroundOutline=1;" vertex="1" parent="1">
          <mxGeometry x="120" y="290" width="240" height="90" as="geometry" />
        </mxCell>
        <mxCell id="7PipBQlGZBK1kUq8rUA4-7" value="&lt;div style=&quot;&quot;&gt;Auto Mint .lens for user and&amp;nbsp;.device for user&#39;s device. Use Relay for gasless txn of 0 MATIC&lt;/div&gt;" style="whiteSpace=wrap;html=1;align=left;" vertex="1" parent="1">
          <mxGeometry x="150" y="670" width="180" height="102.5" as="geometry" />
        </mxCell>
        <mxCell id="7PipBQlGZBK1kUq8rUA4-9" value="YES" style="text;html=1;align=center;verticalAlign=middle;resizable=0;points=[];autosize=1;strokeColor=none;fillColor=none;" vertex="1" parent="1">
          <mxGeometry x="235" y="595" width="50" height="30" as="geometry" />
        </mxCell>
        <mxCell id="7PipBQlGZBK1kUq8rUA4-15" value="" style="edgeStyle=orthogonalEdgeStyle;rounded=0;orthogonalLoop=1;jettySize=auto;html=1;" edge="1" parent="1" source="7PipBQlGZBK1kUq8rUA4-10" target="7PipBQlGZBK1kUq8rUA4-14">
          <mxGeometry relative="1" as="geometry" />
        </mxCell>
        <mxCell id="7PipBQlGZBK1kUq8rUA4-10" value="dSI has any wallet module implemented?&lt;br&gt;(ex bitpack)" style="rhombus;whiteSpace=wrap;html=1;" vertex="1" parent="1">
          <mxGeometry x="460" y="460" width="280" height="135" as="geometry" />
        </mxCell>
        <mxCell id="7PipBQlGZBK1kUq8rUA4-28" style="edgeStyle=orthogonalEdgeStyle;rounded=0;orthogonalLoop=1;jettySize=auto;html=1;entryX=1;entryY=0.5;entryDx=0;entryDy=0;fontSize=40;" edge="1" parent="1" source="7PipBQlGZBK1kUq8rUA4-13" target="7PipBQlGZBK1kUq8rUA4-7">
          <mxGeometry relative="1" as="geometry">
            <Array as="points">
              <mxPoint x="600" y="721" />
            </Array>
          </mxGeometry>
        </mxCell>
        <mxCell id="7PipBQlGZBK1kUq8rUA4-13" value="YES" style="text;html=1;align=center;verticalAlign=middle;resizable=0;points=[];autosize=1;strokeColor=none;fillColor=none;" vertex="1" parent="1">
          <mxGeometry x="595" y="595" width="50" height="30" as="geometry" />
        </mxCell>
        <mxCell id="7PipBQlGZBK1kUq8rUA4-18" value="" style="edgeStyle=orthogonalEdgeStyle;rounded=0;orthogonalLoop=1;jettySize=auto;html=1;" edge="1" parent="1" source="7PipBQlGZBK1kUq8rUA4-14" target="7PipBQlGZBK1kUq8rUA4-17">
          <mxGeometry relative="1" as="geometry" />
        </mxCell>
        <mxCell id="7PipBQlGZBK1kUq8rUA4-14" value="Show a list of wallets to open including walletconnect" style="whiteSpace=wrap;html=1;" vertex="1" parent="1">
          <mxGeometry x="900" y="497.5" width="120" height="60" as="geometry" />
        </mxCell>
        <mxCell id="7PipBQlGZBK1kUq8rUA4-16" value="NO" style="text;html=1;align=center;verticalAlign=middle;resizable=0;points=[];autosize=1;strokeColor=none;fillColor=none;" vertex="1" parent="1">
          <mxGeometry x="740" y="495" width="40" height="30" as="geometry" />
        </mxCell>
        <mxCell id="7PipBQlGZBK1kUq8rUA4-22" value="" style="edgeStyle=orthogonalEdgeStyle;rounded=0;orthogonalLoop=1;jettySize=auto;html=1;" edge="1" parent="1" source="7PipBQlGZBK1kUq8rUA4-17" target="7PipBQlGZBK1kUq8rUA4-21">
          <mxGeometry relative="1" as="geometry" />
        </mxCell>
        <mxCell id="7PipBQlGZBK1kUq8rUA4-29" style="edgeStyle=orthogonalEdgeStyle;rounded=0;orthogonalLoop=1;jettySize=auto;html=1;entryX=1;entryY=0.75;entryDx=0;entryDy=0;fontSize=40;" edge="1" parent="1" source="7PipBQlGZBK1kUq8rUA4-17" target="7PipBQlGZBK1kUq8rUA4-7">
          <mxGeometry relative="1" as="geometry">
            <Array as="points">
              <mxPoint x="1160" y="747" />
            </Array>
          </mxGeometry>
        </mxCell>
        <mxCell id="7PipBQlGZBK1kUq8rUA4-17" value="Link to &lt;br&gt;wallet?" style="rhombus;whiteSpace=wrap;html=1;" vertex="1" parent="1">
          <mxGeometry x="1120" y="487.5" width="80" height="80" as="geometry" />
        </mxCell>
        <mxCell id="7PipBQlGZBK1kUq8rUA4-20" value="YES" style="text;html=1;align=center;verticalAlign=middle;resizable=0;points=[];autosize=1;strokeColor=none;fillColor=none;" vertex="1" parent="1">
          <mxGeometry x="1155" y="565" width="50" height="30" as="geometry" />
        </mxCell>
        <mxCell id="7PipBQlGZBK1kUq8rUA4-21" value="Show Error. Unable to onboard user" style="whiteSpace=wrap;html=1;" vertex="1" parent="1">
          <mxGeometry x="1260" y="497.5" width="120" height="60" as="geometry" />
        </mxCell>
        <mxCell id="7PipBQlGZBK1kUq8rUA4-23" value="&lt;font style=&quot;font-size: 40px;&quot;&gt;User Onboarding Journey&lt;/font&gt;" style="text;html=1;align=center;verticalAlign=middle;resizable=0;points=[];autosize=1;strokeColor=none;fillColor=none;" vertex="1" parent="1">
          <mxGeometry x="360" y="800" width="480" height="60" as="geometry" />
        </mxCell>
        <mxCell id="7PipBQlGZBK1kUq8rUA4-24" value="" style="endArrow=none;html=1;rounded=0;fontSize=40;" edge="1" parent="1">
          <mxGeometry width="50" height="50" relative="1" as="geometry">
            <mxPoint x="120" y="880" as="sourcePoint" />
            <mxPoint x="1480" y="880" as="targetPoint" />
          </mxGeometry>
        </mxCell>
        <mxCell id="7PipBQlGZBK1kUq8rUA4-25" value="" style="endArrow=none;html=1;rounded=0;fontSize=40;" edge="1" parent="1">
          <mxGeometry width="50" height="50" relative="1" as="geometry">
            <mxPoint x="110" y="80" as="sourcePoint" />
            <mxPoint x="1470" y="80" as="targetPoint" />
          </mxGeometry>
        </mxCell>
        <mxCell id="7PipBQlGZBK1kUq8rUA4-26" value="" style="endArrow=none;html=1;rounded=0;fontSize=40;" edge="1" parent="1">
          <mxGeometry width="50" height="50" relative="1" as="geometry">
            <mxPoint x="40" y="600" as="sourcePoint" />
            <mxPoint x="40" y="430" as="targetPoint" />
          </mxGeometry>
        </mxCell>
        <mxCell id="7PipBQlGZBK1kUq8rUA4-27" value="" style="endArrow=none;html=1;rounded=0;fontSize=40;" edge="1" parent="1">
          <mxGeometry width="50" height="50" relative="1" as="geometry">
            <mxPoint x="1480" y="580" as="sourcePoint" />
            <mxPoint x="1480" y="410" as="targetPoint" />
          </mxGeometry>
        </mxCell>
        <mxCell id="7PipBQlGZBK1kUq8rUA4-33" value="" style="edgeStyle=orthogonalEdgeStyle;rounded=0;orthogonalLoop=1;jettySize=auto;html=1;fontSize=12;" edge="1" parent="1" source="7PipBQlGZBK1kUq8rUA4-31" target="7PipBQlGZBK1kUq8rUA4-32">
          <mxGeometry relative="1" as="geometry" />
        </mxCell>
        <mxCell id="7PipBQlGZBK1kUq8rUA4-31" value="User &amp;nbsp;Connect Wallet to &quot;dApp Store Protocol&quot; dApp" style="shape=process;whiteSpace=wrap;html=1;backgroundOutline=1;fontSize=12;" vertex="1" parent="1">
          <mxGeometry x="210" y="1040" width="150" height="80" as="geometry" />
        </mxCell>
        <mxCell id="7PipBQlGZBK1kUq8rUA4-35" style="edgeStyle=orthogonalEdgeStyle;rounded=0;orthogonalLoop=1;jettySize=auto;html=1;entryX=0;entryY=0.5;entryDx=0;entryDy=0;fontSize=12;" edge="1" parent="1" source="7PipBQlGZBK1kUq8rUA4-32" target="7PipBQlGZBK1kUq8rUA4-34">
          <mxGeometry relative="1" as="geometry" />
        </mxCell>
        <mxCell id="7PipBQlGZBK1kUq8rUA4-32" value="Enters the handle" style="whiteSpace=wrap;html=1;" vertex="1" parent="1">
          <mxGeometry x="455" y="1050" width="120" height="60" as="geometry" />
        </mxCell>
        <mxCell id="7PipBQlGZBK1kUq8rUA4-34" value="Mint .app" style="shape=process;whiteSpace=wrap;html=1;backgroundOutline=1;fontSize=12;" vertex="1" parent="1">
          <mxGeometry x="645" y="1040" width="155" height="80" as="geometry" />
        </mxCell>
        <mxCell id="7PipBQlGZBK1kUq8rUA4-40" value="" style="edgeStyle=orthogonalEdgeStyle;rounded=0;orthogonalLoop=1;jettySize=auto;html=1;fontSize=12;" edge="1" parent="1" source="7PipBQlGZBK1kUq8rUA4-36" target="7PipBQlGZBK1kUq8rUA4-39">
          <mxGeometry relative="1" as="geometry" />
        </mxCell>
        <mxCell id="7PipBQlGZBK1kUq8rUA4-36" value="User Connect Wallet to &quot;dApp Store Protocol&quot; dApp" style="shape=process;whiteSpace=wrap;html=1;backgroundOutline=1;fontSize=12;" vertex="1" parent="1">
          <mxGeometry x="200" y="1240" width="160" height="80" as="geometry" />
        </mxCell>
        <mxCell id="7PipBQlGZBK1kUq8rUA4-42" value="" style="edgeStyle=orthogonalEdgeStyle;rounded=0;orthogonalLoop=1;jettySize=auto;html=1;fontSize=12;" edge="1" parent="1" source="7PipBQlGZBK1kUq8rUA4-39" target="7PipBQlGZBK1kUq8rUA4-41">
          <mxGeometry relative="1" as="geometry" />
        </mxCell>
        <mxCell id="7PipBQlGZBK1kUq8rUA4-47" style="edgeStyle=orthogonalEdgeStyle;rounded=0;orthogonalLoop=1;jettySize=auto;html=1;entryX=0;entryY=0.5;entryDx=0;entryDy=0;fontSize=12;" edge="1" parent="1" source="7PipBQlGZBK1kUq8rUA4-39" target="7PipBQlGZBK1kUq8rUA4-46">
          <mxGeometry relative="1" as="geometry" />
        </mxCell>
        <mxCell id="7PipBQlGZBK1kUq8rUA4-39" value="User owns a .app NFT?" style="rhombus;whiteSpace=wrap;html=1;" vertex="1" parent="1">
          <mxGeometry x="480" y="1200" width="150" height="160" as="geometry" />
        </mxCell>
        <mxCell id="7PipBQlGZBK1kUq8rUA4-41" value="Show Error &amp;amp; Stop" style="whiteSpace=wrap;html=1;" vertex="1" parent="1">
          <mxGeometry x="495" y="1490" width="120" height="60" as="geometry" />
        </mxCell>
        <mxCell id="7PipBQlGZBK1kUq8rUA4-43" value="NO" style="text;html=1;align=center;verticalAlign=middle;resizable=0;points=[];autosize=1;strokeColor=none;fillColor=none;fontSize=12;" vertex="1" parent="1">
          <mxGeometry x="550" y="1355" width="40" height="30" as="geometry" />
        </mxCell>
        <mxCell id="7PipBQlGZBK1kUq8rUA4-46" value="Mint .dev" style="shape=process;whiteSpace=wrap;html=1;backgroundOutline=1;fontSize=12;" vertex="1" parent="1">
          <mxGeometry x="680" y="1240" width="160" height="80" as="geometry" />
        </mxCell>
        <mxCell id="7PipBQlGZBK1kUq8rUA4-48" value="YES" style="text;html=1;align=center;verticalAlign=middle;resizable=0;points=[];autosize=1;strokeColor=none;fillColor=none;fontSize=12;" vertex="1" parent="1">
          <mxGeometry x="605" y="1295" width="50" height="30" as="geometry" />
        </mxCell>
        <mxCell id="7PipBQlGZBK1kUq8rUA4-49" value="&lt;font style=&quot;font-size: 40px;&quot;&gt;.dev &amp;amp; .app Onboarding Journey&lt;/font&gt;" style="text;html=1;align=center;verticalAlign=middle;resizable=0;points=[];autosize=1;strokeColor=none;fillColor=none;" vertex="1" parent="1">
          <mxGeometry x="250" y="1580" width="600" height="60" as="geometry" />
        </mxCell>
        <mxCell id="7PipBQlGZBK1kUq8rUA4-50" value="" style="endArrow=none;html=1;rounded=0;fontSize=40;" edge="1" parent="1">
          <mxGeometry width="50" height="50" relative="1" as="geometry">
            <mxPoint x="130" y="990" as="sourcePoint" />
            <mxPoint x="890" y="990" as="targetPoint" />
          </mxGeometry>
        </mxCell>
        <mxCell id="7PipBQlGZBK1kUq8rUA4-51" value="" style="endArrow=none;html=1;rounded=0;fontSize=40;" edge="1" parent="1">
          <mxGeometry width="50" height="50" relative="1" as="geometry">
            <mxPoint x="135" y="1740" as="sourcePoint" />
            <mxPoint x="895" y="1740" as="targetPoint" />
          </mxGeometry>
        </mxCell>
        <mxCell id="7PipBQlGZBK1kUq8rUA4-52" value="" style="endArrow=none;html=1;rounded=0;fontSize=40;" edge="1" parent="1">
          <mxGeometry width="50" height="50" relative="1" as="geometry">
            <mxPoint x="97.78" y="1395" as="sourcePoint" />
            <mxPoint x="97.78" y="1225" as="targetPoint" />
          </mxGeometry>
        </mxCell>
        <mxCell id="7PipBQlGZBK1kUq8rUA4-53" value="" style="endArrow=none;html=1;rounded=0;fontSize=40;" edge="1" parent="1">
          <mxGeometry width="50" height="50" relative="1" as="geometry">
            <mxPoint x="930" y="1370" as="sourcePoint" />
            <mxPoint x="930" y="1200" as="targetPoint" />
          </mxGeometry>
        </mxCell>
      </root>
    </mxGraphModel>
  </diagram>
</mxfile>
